<svg width="11" height="16" viewBox="0 0 11 16" fill="none" xmlns="http://www.w3.org/2000/svg">
<path d="M2.66656 16.0001C4.1385 16.0001 5.33312 14.8054 5.33312 13.3334V10.6667H2.66656C1.19462 10.6667 0 11.8614 0 13.3334C0 14.8054 1.19462 16.0001 2.66656 16.0001Z" fill="#0ACF83"/>
<path d="M0 8.00017C0 6.52817 1.19462 5.3335 2.66656 5.3335H5.33312V10.6668H2.66656C1.19462 10.6668 0 9.47218 0 8.00017Z" fill="#A259FF"/>
<path d="M0 2.66668C0 1.19467 1.19462 0 2.66656 0H5.33312V5.33336H2.66656C1.19462 5.33336 0 4.13869 0 2.66668Z" fill="#F24E1E"/>
<path d="M5.33398 0H8.00055C9.47249 0 10.6671 1.19467 10.6671 2.66668C10.6671 4.13869 9.47249 5.33336 8.00055 5.33336H5.33398V0Z" fill="#FF7262"/>
<path d="M10.6671 8.00017C10.6671 9.47218 9.47249 10.6668 8.00055 10.6668C6.52861 10.6668 5.33398 9.47218 5.33398 8.00017C5.33398 6.52817 6.52861 5.3335 8.00055 5.3335C9.47249 5.3335 10.6671 6.52817 10.6671 8.00017Z" fill="#1ABCFE"/>
</svg>
