<svg width="17" height="16" viewBox="0 0 17 16" fill="none" xmlns="http://www.w3.org/2000/svg">
<path d="M16.0894 0H0V16H16.0894V0Z" fill="#F7DF1E"/>
<path d="M10.8079 12.4999C11.132 13.0261 11.5537 13.4129 12.2994 13.4129C12.9259 13.4129 13.3261 13.1015 13.3261 12.6713C13.3261 12.1557 12.9149 11.9731 12.2253 11.6732L11.8474 11.5119C10.7564 11.0497 10.0316 10.4707 10.0316 9.24653C10.0316 8.11891 10.8955 7.2605 12.2458 7.2605C13.2071 7.2605 13.8981 7.5932 14.3961 8.46431L13.2188 9.21605C12.9596 8.75383 12.6799 8.57174 12.2458 8.57174C11.8029 8.57174 11.5223 8.8511 11.5223 9.21605C11.5223 9.6671 11.8032 9.8497 12.4519 10.1291L12.8298 10.2901C14.1144 10.8379 14.8397 11.3964 14.8397 12.652C14.8397 14.0056 13.7704 14.7472 12.3344 14.7472C10.9303 14.7472 10.0231 14.0818 9.57928 13.2097L10.8079 12.4999ZM5.46704 12.6301C5.70455 13.0492 5.92061 13.4035 6.44006 13.4035C6.93679 13.4035 7.25015 13.2102 7.25015 12.4587V7.34634H8.76204V12.479C8.76204 14.0359 7.84418 14.7444 6.50442 14.7444C5.29389 14.7444 4.59285 14.1215 4.23633 13.3711L5.46704 12.6301Z" fill="black"/>
</svg>
