<svg width="100" height="100" viewBox="0 0 100 100" fill="none" xmlns="http://www.w3.org/2000/svg">
<g id="nestjs">
<g id="nestjs_2">
<path id="Vector" fill-rule="evenodd" clip-rule="evenodd" d="M58.8812 0C58.1581 0 57.4866 0.154956 56.8668 0.361552C58.1839 1.23961 58.907 2.40174 59.2685 3.71882C59.2944 3.8996 59.346 4.02873 59.3719 4.2095C59.3978 4.36445 59.4235 4.5194 59.4235 4.67436C59.5268 6.94696 58.8295 7.23104 58.3388 8.57395C57.5899 10.3042 57.7965 12.1637 58.7004 13.6615C58.7779 13.8423 58.8812 14.0489 59.0103 14.2297C58.0289 7.69589 63.478 6.71454 64.4852 4.67436C64.5627 2.89242 63.0907 1.70446 61.9285 0.878054C60.818 0.206602 59.8109 0 58.8812 0ZM67.0936 1.47203C66.9902 2.06601 67.0677 1.91106 67.0419 2.22097C67.0161 2.42756 67.0161 2.68582 66.9903 2.89242C66.9387 3.09902 66.887 3.30562 66.8095 3.51223C66.7579 3.71882 66.6804 3.92543 66.603 4.13202C66.4996 4.33863 66.4222 4.5194 66.3189 4.726C66.2414 4.82935 66.1898 4.9326 66.1123 5.03591C66.0607 5.11338 66.0089 5.19086 65.9573 5.26833C65.8282 5.44912 65.6991 5.62988 65.5699 5.78483C65.415 5.93979 65.2859 6.12056 65.1051 6.24969V6.27555C64.9501 6.40468 64.7952 6.55963 64.6144 6.68875C64.0721 7.10195 63.4523 7.41185 62.8841 7.79923C62.7034 7.92835 62.5226 8.03166 62.3676 8.18661C62.1869 8.31573 62.0319 8.44486 61.877 8.59981C61.6962 8.75476 61.567 8.90972 61.4121 9.09049C61.283 9.24545 61.128 9.42622 61.0247 9.607C60.8956 9.78777 60.7665 9.96855 60.6632 10.1493C60.5598 10.3559 60.4824 10.5367 60.3791 10.7433C60.3016 10.9499 60.2241 11.1307 60.1725 11.3373C60.095 11.5697 60.0434 11.7763 59.9917 11.9829C59.9659 12.0863 59.9659 12.2153 59.9401 12.3186C59.9142 12.422 59.9142 12.5252 59.8885 12.6285C59.8885 12.8351 59.8626 13.0676 59.8626 13.2742C59.8626 13.4291 59.8626 13.5841 59.8885 13.739C59.8885 13.9456 59.9144 14.1522 59.966 14.3846C59.9918 14.5912 60.0434 14.7978 60.0951 15.0045C60.1726 15.2111 60.2242 15.4177 60.3017 15.6242C60.3533 15.7534 60.4308 15.8825 60.4825 15.9858L54.5427 13.6874C53.5355 13.4033 52.5542 13.145 51.547 12.9126C51.0046 12.7835 50.4623 12.6544 49.92 12.5252C48.3705 12.2153 46.7952 11.9829 45.2198 11.828C45.1682 11.828 45.1423 11.8021 45.0907 11.8021C43.5412 11.6472 42.0175 11.5697 40.468 11.5697C39.3317 11.5697 38.1954 11.6213 37.0849 11.6988C35.5095 11.8021 33.9342 12.0087 32.3589 12.2669C31.9715 12.3186 31.5841 12.3961 31.1967 12.4736C30.3962 12.6285 29.6214 12.8093 28.8725 12.9901C28.4851 13.0934 28.0977 13.1967 27.7103 13.3C27.323 13.4549 26.9614 13.6357 26.5999 13.7906C26.3158 13.9198 26.0317 14.0489 25.7476 14.178C25.696 14.2039 25.6443 14.2039 25.6185 14.2296C25.3603 14.3588 25.1278 14.462 24.8954 14.5912C24.8179 14.617 24.7663 14.6428 24.7146 14.6687C24.4306 14.7978 24.1465 14.9527 23.9141 15.0819C23.7333 15.1593 23.5525 15.2626 23.3976 15.3401C23.3201 15.3917 23.2168 15.4435 23.1651 15.4692C22.9327 15.5984 22.7003 15.7275 22.4937 15.8566C22.2612 15.9857 22.0546 16.1149 21.8739 16.244C21.6931 16.3731 21.5123 16.4764 21.3574 16.6055C21.3315 16.6314 21.3057 16.6314 21.2799 16.6571C21.1249 16.7605 20.9442 16.8896 20.7892 17.0187C20.7892 17.0187 20.7633 17.0446 20.7376 17.0703C20.6085 17.1737 20.4793 17.2769 20.3502 17.3802C20.2986 17.4061 20.2469 17.4577 20.1953 17.4836C20.0661 17.5869 19.937 17.716 19.8079 17.8193C19.782 17.8709 19.7304 17.8968 19.7046 17.9226C19.5496 18.0776 19.3947 18.2067 19.2397 18.3617C19.2138 18.3617 19.2138 18.3875 19.1881 18.4133C19.0331 18.5424 18.8782 18.6973 18.7232 18.8523C18.6974 18.8782 18.6974 18.9039 18.6716 18.9039C18.5425 19.033 18.4134 19.1622 18.2842 19.3171C18.2326 19.3687 18.1551 19.4204 18.1035 19.472C17.9744 19.627 17.8194 19.782 17.6644 19.9369C17.6386 19.9885 17.587 20.0144 17.5611 20.066C17.3545 20.2726 17.1737 20.4792 16.9671 20.6858C16.9413 20.7117 16.9155 20.7374 16.8897 20.7633C16.4764 21.2023 16.0374 21.6414 15.5726 22.0287C15.1077 22.4419 14.617 22.8293 14.1264 23.165C13.6099 23.5266 13.1192 23.8365 12.5768 24.1464C12.0603 24.4305 11.518 24.6887 10.9499 24.9212C10.4075 25.1536 9.83938 25.3602 9.27123 25.541C8.18657 25.7734 7.07609 26.2124 6.12056 26.2899C5.91396 26.2899 5.68153 26.3415 5.47493 26.3674C5.2425 26.419 5.0359 26.4707 4.82931 26.5223C4.62271 26.5998 4.4161 26.6773 4.2095 26.7547C4.0029 26.8322 3.7963 26.9355 3.5897 27.0388C3.40892 27.1679 3.20232 27.2712 3.02154 27.4004C2.84077 27.5295 2.65999 27.6844 2.50504 27.8394C2.32427 27.9685 2.14349 28.1493 1.98853 28.3042C1.83358 28.485 1.67863 28.64 1.54951 28.8207C1.42038 29.0273 1.26543 29.2081 1.16213 29.4147C1.033 29.5955 0.903882 29.8021 0.800576 30.0087C0.697234 30.2411 0.593977 30.4477 0.516501 30.6802C0.439025 30.8868 0.361549 31.1192 0.284073 31.3516C0.232463 31.5582 0.180732 31.7648 0.154951 31.9714C0.154951 31.9973 0.129086 32.023 0.129086 32.0489C0.0774755 32.2813 0.0774754 32.5912 0.0516095 32.7462C0.0257446 32.927 0 33.0819 0 33.2627C0 33.366 8.03957e-08 33.4951 0.025865 33.5984C0.0517299 33.7792 0.0774744 33.9341 0.129207 34.0891C0.180817 34.244 0.232549 34.399 0.309976 34.5539V34.5798C0.387452 34.7348 0.490757 34.8897 0.594051 35.0447C0.697393 35.1996 0.800662 35.3546 0.929784 35.5095C1.05891 35.6386 1.21386 35.7936 1.36881 35.9227C1.52376 36.0777 1.67872 36.2068 1.85948 36.3359C2.47929 36.8782 2.63424 37.059 3.43482 37.4722C3.56394 37.5497 3.69308 37.6014 3.84803 37.6788C3.8739 37.6788 3.89964 37.7047 3.92551 37.7047C3.92551 37.7563 3.92551 37.7822 3.95138 37.8338C3.97724 38.0404 4.02885 38.247 4.0805 38.4536C4.13211 38.6861 4.20963 38.8927 4.28711 39.0734C4.36459 39.2284 4.41623 39.3833 4.49371 39.5383C4.51957 39.5899 4.54532 39.6416 4.57119 39.6674C4.67453 39.874 4.77778 40.0548 4.88108 40.2356C5.01021 40.4163 5.13933 40.5971 5.26846 40.7779C5.39758 40.9328 5.55253 41.1136 5.70748 41.2686C5.86244 41.4235 6.01739 41.5526 6.19817 41.7076C6.19817 41.7076 6.22404 41.7335 6.24978 41.7335C6.40473 41.8626 6.55968 41.9917 6.71464 42.095C6.89541 42.2242 7.07619 42.3275 7.28279 42.4308C7.46357 42.5341 7.67017 42.6374 7.87676 42.7148C8.03172 42.7923 8.21248 42.844 8.39327 42.8956C8.41914 42.9215 8.44488 42.9215 8.49661 42.9472C8.59995 42.9731 8.72902 42.9988 8.83233 43.0247C8.75485 44.4193 8.72899 45.7363 8.93567 46.2012C9.16809 46.7177 10.3044 45.1424 11.4407 43.3346C11.2858 45.1166 11.1825 47.2084 11.4407 47.8282C11.7248 48.4738 13.2743 46.4594 14.6172 44.2385C32.9272 40.0032 49.6361 52.6575 51.3922 70.5285C51.0565 67.7394 47.6217 66.1899 46.0464 66.5772C45.2717 68.4883 43.9546 70.9417 41.8369 72.4654C42.0177 70.7609 41.9403 69.0048 41.5787 67.3003C41.0105 69.6763 39.9 71.8972 38.3763 73.8083C35.923 73.9891 33.4696 72.8011 32.1783 71.0192C32.075 70.9417 32.0492 70.7867 31.9717 70.6834C31.8942 70.5027 31.8167 70.3219 31.7651 70.1411C31.6876 69.9603 31.636 69.7796 31.6101 69.5988C31.5843 69.418 31.5843 69.2372 31.5843 69.0306C31.5843 68.9015 31.5843 68.7724 31.5843 68.6433C31.6101 68.4625 31.6618 68.2817 31.7134 68.1009C31.765 67.9202 31.8167 67.7394 31.8942 67.5586C31.9975 67.3778 32.075 67.1971 32.2041 67.0163C32.6431 65.7767 32.6431 64.7695 31.8425 64.1755C31.6876 64.0722 31.5326 63.9947 31.3518 63.9173C31.2485 63.8914 31.1194 63.8398 31.0161 63.8139C30.9387 63.7881 30.887 63.7623 30.8095 63.7364C30.6287 63.6848 30.448 63.6331 30.2672 63.6073C30.0864 63.5557 29.9056 63.5298 29.7249 63.5298C29.5441 63.5039 29.3375 63.4782 29.1567 63.4782C29.0276 63.4782 28.8985 63.5041 28.7693 63.5041C28.5627 63.5041 28.382 63.53 28.2012 63.5816C28.0204 63.6074 27.8396 63.6332 27.6589 63.6849C27.4781 63.7365 27.2973 63.7882 27.1165 63.8657C26.9358 63.9431 26.7808 64.0206 26.6 64.0981C26.4451 64.1756 26.2901 64.2789 26.1093 64.3563C20.0921 68.2818 23.6818 77.4755 27.788 80.1355C26.2385 80.4196 24.6631 80.7553 24.2241 81.091C24.1982 81.1169 24.1725 81.1427 24.1725 81.1427C25.283 81.8141 26.4451 82.3823 27.6589 82.8729C29.3117 83.4153 31.0678 83.9059 31.8426 84.1125V84.1384C33.9861 84.5774 36.1554 84.7324 38.3505 84.6033C49.7911 83.8027 59.1656 75.0996 60.8701 63.6332C60.9217 63.8657 60.9734 64.0723 61.025 64.3047C61.1025 64.7695 61.2058 65.2602 61.2574 65.7509V65.7768C61.309 66.0092 61.3349 66.2416 61.3608 66.4482V66.5516C61.3867 66.784 61.4124 67.0164 61.4124 67.223C61.4382 67.5071 61.464 67.7912 61.464 68.0753V68.4885C61.464 68.6176 61.4898 68.7725 61.4898 68.9017C61.4898 69.0566 61.464 69.2116 61.464 69.3665V69.7281C61.464 69.9089 61.4381 70.0638 61.4381 70.2446C61.4381 70.3479 61.4381 70.4512 61.4122 70.5803C61.4122 70.7611 61.3864 70.9419 61.3864 71.1485C61.3605 71.2259 61.3605 71.3034 61.3605 71.3809C61.3346 71.5875 61.3089 71.7683 61.283 71.9749C61.283 72.0524 61.283 72.1298 61.2571 72.2073C61.2312 72.4655 61.1797 72.698 61.1538 72.9562V72.9821V73.008C61.1022 73.2404 61.0505 73.4987 60.9988 73.7311V73.8086C60.9472 74.041 60.8955 74.2734 60.8439 74.5058C60.8439 74.5317 60.8181 74.5833 60.8181 74.6092C60.7664 74.8416 60.7147 75.074 60.6373 75.3065V75.3839C60.5598 75.6422 60.4823 75.8746 60.4307 76.107C60.4048 76.1329 60.4048 76.1586 60.4048 76.1586C60.3273 76.4169 60.2499 76.6751 60.1724 76.9334C60.0691 77.1917 59.9916 77.4241 59.8883 77.6823C59.785 77.9406 59.7075 78.1988 59.6042 78.4313C59.5009 78.6895 59.3976 78.9219 59.2943 79.1802H59.2684C59.1651 79.4126 59.0618 79.6709 58.9327 79.9033C58.9068 79.9808 58.8811 80.0324 58.8552 80.0841C58.8294 80.11 58.8294 80.1357 58.8036 80.1615C57.125 83.5446 54.6458 86.5145 51.5468 88.8388C51.3402 88.9679 51.1335 89.1229 50.927 89.2778C50.8753 89.3294 50.7978 89.3553 50.7462 89.4069C50.5654 89.5361 50.3846 89.6652 50.178 89.7943L50.2555 89.9493H50.2814C50.6429 89.8977 51.0045 89.8459 51.366 89.7943H51.3919C52.0633 89.691 52.7348 89.5619 53.4062 89.4328C53.587 89.4069 53.7936 89.3553 53.9744 89.3036C54.1035 89.2777 54.2068 89.252 54.3359 89.2262C54.5167 89.2003 54.6975 89.1487 54.8783 89.1228C55.0332 89.0712 55.1882 89.0453 55.3431 88.9937C57.9256 88.3739 60.4307 87.5217 62.8324 86.5145C58.7262 92.1185 53.2255 96.6379 46.795 99.6078C49.7649 99.4012 52.7348 98.9106 55.6014 98.0842C66.0089 95.0109 74.7636 88.0123 80.0061 78.5862C78.9473 84.5518 76.5714 90.2333 73.0592 95.1917C75.5642 93.5389 77.8626 91.6279 79.9545 89.4585C85.7393 83.4155 89.5356 75.7454 90.8269 67.5072C91.7049 71.5875 91.9632 75.7971 91.5758 79.9549C110.222 53.949 93.1253 26.9875 85.9717 19.8856C85.9459 19.834 85.9201 19.8081 85.9201 19.7565C85.8942 19.7823 85.8942 19.7823 85.8942 19.8081C85.8942 19.7822 85.8942 19.7822 85.8684 19.7565C85.8684 20.0664 85.8425 20.3763 85.8168 20.6862C85.7393 21.2801 85.6618 21.8483 85.5585 22.4165C85.4294 22.9846 85.2744 23.5528 85.1195 24.1209C84.9387 24.6632 84.7321 25.2314 84.4997 25.7737C84.2673 26.2902 84.009 26.8326 83.7249 27.3491C83.4409 27.8397 83.131 28.3562 82.7952 28.8211C82.4595 29.3118 82.098 29.7766 81.7364 30.2156C81.349 30.6805 80.9358 31.0937 80.5226 31.5069C80.2644 31.7393 80.0319 31.9459 79.7737 32.1525C79.5671 32.3333 79.3863 32.4883 79.1797 32.669C78.7149 33.0306 78.25 33.3663 77.7335 33.6762C77.2428 33.9861 76.7263 34.296 76.2098 34.5543C75.6675 34.8125 75.1252 35.0449 74.5828 35.2774C74.0405 35.484 73.4724 35.6648 72.9042 35.8197C72.336 35.9747 71.7421 36.1038 71.1739 36.2071C70.5799 36.3104 69.986 36.362 69.4178 36.4137C69.0046 36.4395 68.5914 36.4653 68.1782 36.4653C67.5842 36.4653 66.9902 36.4137 66.4221 36.362C65.8281 36.3104 65.2341 36.2328 64.666 36.1037C64.072 36.0004 63.5038 35.8454 62.9357 35.6647H62.9098C63.478 35.6131 64.0461 35.5613 64.6143 35.4581C65.2083 35.3547 65.7764 35.2257 66.3446 35.0707C66.9127 34.9157 67.4809 34.735 68.0232 34.5284C68.5914 34.3218 69.1337 34.0635 69.6502 33.8053C70.1925 33.547 70.6832 33.2629 71.1997 32.953C71.6904 32.6173 72.1811 32.2816 72.6459 31.92C73.1108 31.5585 73.5498 31.1711 73.963 30.7579C74.402 30.3705 74.7894 29.9315 75.1768 29.4925C75.5641 29.0276 75.9257 28.5628 76.2614 28.0979C76.313 28.0204 76.3648 27.9171 76.4164 27.8397C76.6746 27.4264 76.9329 27.0133 77.1653 26.6C77.4494 26.0835 77.7076 25.567 77.9401 25.0247C78.1725 24.4824 78.3791 23.94 78.5599 23.3719C78.7406 22.8296 78.8698 22.2614 78.9989 21.6933C79.1023 21.0993 79.2055 20.5311 79.2572 19.963C79.3088 19.369 79.3605 18.775 79.3605 18.2069C79.3605 17.7937 79.3346 17.3805 79.3089 16.9673C79.2573 16.3733 79.1798 15.8051 79.1023 15.237C78.9989 14.643 78.8699 14.0749 78.7149 13.5067C78.5341 12.9644 78.3534 12.3962 78.1468 11.8539C77.9401 11.3116 77.6819 10.7692 77.4236 10.2527C77.1396 9.73622 76.8555 9.21972 76.5456 8.72905C76.2099 8.23837 75.8741 7.77352 75.5126 7.30866C75.1252 6.86963 74.7378 6.43061 74.3246 5.99158C74.118 5.78498 73.8856 5.55255 73.6532 5.34596C72.491 4.44207 71.2773 3.58983 70.0635 2.81509C69.8827 2.71175 69.7278 2.63431 69.547 2.55683C68.6947 2.01451 67.8941 1.73028 67.0936 1.47203Z" fill="#E0234E"/>
</g>
</g>
</svg>
