<svg width="23" height="16" viewBox="0 0 23 16" fill="none" xmlns="http://www.w3.org/2000/svg">
<path d="M7.35772 15.4521C7.34133 15.4238 7.32672 15.3946 7.31396 15.3646C7.22595 15.1656 7.1989 14.9459 7.23609 14.7322H2.02298L9.7703 1.41972L12.3138 5.78554L13.0511 4.51149L10.8339 0.69775C10.7277 0.502428 10.573 0.336224 10.384 0.214333C10.195 0.0924424 9.97772 0.0187524 9.75204 0C9.52681 0.00999644 9.30898 0.0815108 9.12332 0.206408C8.93766 0.331305 8.79163 0.504572 8.70183 0.706498L0.853213 14.1804C0.735894 14.3706 0.668252 14.5861 0.656236 14.8079C0.644219 15.0296 0.688198 15.2508 0.784302 15.4521C0.905002 15.638 1.07656 15.7871 1.27957 15.8827C1.48258 15.9783 1.70894 16.0166 1.93305 15.9931H8.50681C8.28267 16.0169 8.05618 15.9789 7.8531 15.8832C7.65002 15.7876 7.4785 15.6382 7.35807 15.4521H7.35772Z" fill="#00C492"/>
<path d="M22.4709 14.1799L16.0212 3.08687C15.9154 2.88947 15.7604 2.72128 15.5704 2.59781C15.3805 2.47433 15.1618 2.39955 14.9345 2.38037C14.7095 2.38989 14.4918 2.46096 14.3063 2.58546C14.1207 2.70997 13.9747 2.88289 13.8849 3.08451L13.0508 4.51096L13.793 5.78535L14.9413 3.80009L21.3221 14.7316H18.8958C18.9268 14.9123 18.9094 15.0978 18.8451 15.2699C18.8316 15.308 18.8147 15.3448 18.7945 15.3799L18.7738 15.4203C18.642 15.6021 18.4664 15.7494 18.2624 15.8491C18.0584 15.9489 17.8324 15.998 17.6044 15.9922H21.4C21.6281 15.9982 21.8541 15.9491 22.0581 15.8494C22.2621 15.7496 22.4377 15.6022 22.5694 15.4203C22.6734 15.2252 22.7192 15.0056 22.7018 14.7863C22.6844 14.5671 22.6044 14.357 22.4709 14.1799V14.1799Z" fill="#008776"/>
<path d="M18.7734 15.4211L18.7941 15.3807C18.8142 15.3455 18.831 15.3087 18.8444 15.2707C18.9086 15.0985 18.9261 14.9131 18.8951 14.7324C18.8592 14.5375 18.7876 14.3506 18.6835 14.1806L13.797 5.78577L13.0504 4.51172L12.3082 5.78577L7.42345 14.1806C7.32862 14.3526 7.26487 14.5393 7.23498 14.7324C7.19566 14.9456 7.22043 15.1654 7.3063 15.3652C7.31904 15.3952 7.33365 15.4244 7.35006 15.4527C7.4708 15.6385 7.64238 15.7876 7.84539 15.8831C8.0484 15.9787 8.27474 16.0168 8.49881 15.9933H17.5968C17.8259 15.9999 18.0532 15.9512 18.2584 15.8514C18.4636 15.7516 18.6404 15.6039 18.7731 15.4214L18.7734 15.4211ZM13.05 7.06016L17.5165 14.7321H8.58563L13.05 7.06016Z" fill="#2D4A5D"/>
</svg>
