<svg width="16" height="16" viewBox="0 0 16 16" fill="none" xmlns="http://www.w3.org/2000/svg">
<path d="M7.56204 9.29708C8.28234 9.29708 8.86626 8.7164 8.86626 8.0001C8.86626 7.2838 8.28234 6.70312 7.56204 6.70312C6.84173 6.70312 6.25781 7.2838 6.25781 8.0001C6.25781 8.7164 6.84173 9.29708 7.56204 9.29708Z" fill="#61DAFB"/>
<path fill-rule="evenodd" clip-rule="evenodd" d="M1.42854 7.31752C1.13278 7.58303 1.03557 7.81452 1.03557 7.99996C1.03557 8.18539 1.13278 8.41688 1.42854 8.68239C1.72411 8.94772 2.17848 9.20832 2.7803 9.43683C3.98062 9.89258 5.67072 10.1843 7.56097 10.1843C9.45123 10.1843 11.1413 9.89258 12.3416 9.43683C12.9435 9.20832 13.3978 8.94772 13.6934 8.68239C13.9892 8.41688 14.0864 8.18539 14.0864 7.99996C14.0864 7.81452 13.9892 7.58303 13.6934 7.31752C13.3978 7.05219 12.9435 6.79159 12.3416 6.56308C11.1413 6.10733 9.45123 5.8156 7.56097 5.8156C5.67072 5.8156 3.98062 6.10733 2.7803 6.56308C2.17848 6.79159 1.72411 7.05219 1.42854 7.31752ZM2.4446 5.67895C3.77716 5.17298 5.58619 4.86987 7.56097 4.86987C9.53576 4.86987 11.3448 5.17298 12.6773 5.67895C13.342 5.9313 13.9125 6.24329 14.3252 6.61377C14.7377 6.98407 15.0321 7.45162 15.0321 7.99996C15.0321 8.5483 14.7377 9.01584 14.3252 9.38614C13.9125 9.75663 13.342 10.0686 12.6773 10.321C11.3448 10.8269 9.53576 11.13 7.56097 11.13C5.58619 11.13 3.77716 10.8269 2.4446 10.321C1.77998 10.0686 1.20948 9.75663 0.796783 9.38614C0.384282 9.01584 0.0898438 8.5483 0.0898438 7.99996C0.0898438 7.45162 0.384282 6.98407 0.796783 6.61377C1.20948 6.24329 1.77998 5.9313 2.4446 5.67895Z" fill="#61DAFB"/>
<path fill-rule="evenodd" clip-rule="evenodd" d="M5.09313 2.37846C4.71451 2.25665 4.46301 2.28806 4.29951 2.38193C4.13602 2.4758 3.98291 2.67669 3.89968 3.06367C3.81644 3.45068 3.81668 3.97193 3.91853 4.60408C4.12167 5.86498 4.71238 7.46574 5.65723 9.09317C6.60207 10.7206 7.70076 12.0297 8.69726 12.8351C9.19685 13.2389 9.65067 13.4997 10.0293 13.6215C10.4079 13.7433 10.6594 13.7119 10.8229 13.6181C10.9864 13.5242 11.1395 13.3233 11.2228 12.9363C11.306 12.5493 11.3058 12.0281 11.2039 11.3959C11.0008 10.135 10.4101 8.53426 9.46523 6.90683C8.52038 5.27941 7.4217 3.97029 6.42519 3.16489C5.9256 2.76111 5.47178 2.50027 5.09313 2.37846ZM7.02134 2.43269C8.1288 3.32777 9.29771 4.73475 10.2854 6.43595C11.2731 8.13714 11.9139 9.84731 12.1396 11.2486C12.2523 11.9476 12.2658 12.5952 12.1495 13.1361C12.0331 13.677 11.7733 14.1629 11.2978 14.4359C10.8223 14.709 10.2692 14.6898 9.73996 14.5195C9.21077 14.3493 8.65351 14.0138 8.10112 13.5673C6.99365 12.6722 5.82475 11.2653 4.83707 9.56405C3.8494 7.86285 3.20857 6.15269 2.9828 4.75138C2.8702 4.05243 2.85665 3.40475 2.97298 2.86389C3.08932 2.32299 3.34915 1.83707 3.82467 1.56405C4.30019 1.29104 4.85328 1.31023 5.3825 1.48048C5.91168 1.65072 6.46895 1.98623 7.02134 2.43269Z" fill="#61DAFB"/>
<path fill-rule="evenodd" clip-rule="evenodd" d="M11.2223 3.06374C11.1391 2.67676 10.986 2.47586 10.8225 2.38199C10.659 2.28812 10.4075 2.25672 10.0289 2.37852C9.65022 2.50034 9.1964 2.76117 8.69681 3.16496C7.70031 3.97036 6.60162 5.27947 5.65678 6.9069C4.71193 8.53432 4.12122 10.1351 3.91807 11.396C3.81623 12.0281 3.81599 12.5494 3.89923 12.9364C3.98246 13.3234 4.13556 13.5243 4.29906 13.6181C4.46256 13.712 4.71406 13.7434 5.09268 13.6216C5.47133 13.4998 5.92515 13.239 6.42474 12.8352C7.42125 12.0298 8.51993 10.7207 9.46477 9.09323C10.4096 7.46581 11.0003 5.86505 11.2035 4.60414C11.3053 3.97199 11.3056 3.45074 11.2223 3.06374ZM12.1392 4.75145C11.9134 6.15276 11.2726 7.86292 10.2849 9.56412C9.29726 11.2653 8.12835 12.6723 7.02089 13.5674C6.46849 14.0138 5.91123 14.3493 5.38205 14.5196C4.85283 14.6898 4.29974 14.709 3.82422 14.436C3.3487 14.163 3.08887 13.6771 2.97253 13.1362C2.85619 12.5953 2.86975 11.9476 2.98235 11.2487C3.20812 9.84737 3.84894 8.13721 4.83662 6.43601C5.82429 4.73481 6.9932 3.32784 8.10066 2.43276C8.65306 1.9863 9.21032 1.65079 9.73951 1.48054C10.2687 1.31029 10.8218 1.2911 11.2973 1.56412C11.7728 1.83714 12.0327 2.32306 12.149 2.86395C12.2654 3.40482 12.2518 4.05249 12.1392 4.75145Z" fill="#61DAFB"/>
</svg>
