<svg width="16" height="16" viewBox="0 0 16 16" fill="none" xmlns="http://www.w3.org/2000/svg">
<g clip-path="url(#clip0_513_6502)">
<path d="M16 0H0V16H16V0Z" fill="#4353FF"/>
<path d="M10.578 6.48145C10.578 6.48145 9.71313 9.17545 9.64246 9.39792C9.42467 7.70952 9.20481 6.02137 8.9829 4.3335C7.50913 4.3335 6.72113 5.37525 6.30468 6.47483L5.16468 9.40455C5.15802 9.19443 5.00468 6.50661 5.00468 6.50661C4.91402 5.1594 3.67135 4.33923 2.66602 4.33923L3.88335 11.6668C5.42735 11.6602 6.25979 10.6246 6.69579 9.52505C6.69579 9.52505 7.62468 7.14226 7.6629 7.03411C7.66957 7.13564 8.32957 11.6664 8.32957 11.6664C9.87979 11.6664 10.7127 10.6944 11.1607 9.6332L13.3327 4.33968C11.8016 4.33968 10.9945 5.37525 10.578 6.48101V6.48145Z" fill="white"/>
</g>
<rect x="0.5" y="0.5" width="15" height="15" stroke="black" stroke-opacity="0.1"/>
<defs>
<clipPath id="clip0_513_6502">
<rect width="16" height="16" fill="white"/>
</clipPath>
</defs>
</svg>
