<svg width="16" height="16" viewBox="0 0 16 16" fill="none" xmlns="http://www.w3.org/2000/svg">
<path d="M1.13672 7.9998C1.13672 10.7164 2.71534 13.0638 5.00447 14.1764L1.73087 5.20681C1.33845 6.08561 1.13598 7.03736 1.13672 7.9998V7.9998ZM12.6322 7.65348C12.6322 6.80532 12.3276 6.21794 12.0663 5.76076C11.7184 5.19545 11.3925 4.71672 11.3925 4.15141C11.3925 3.52054 11.8708 2.9333 12.5447 2.9333C12.5752 2.9333 12.604 2.93708 12.6338 2.93878C11.4127 1.82018 9.78603 1.13721 7.99939 1.13721C5.60188 1.13721 3.49257 2.36733 2.26548 4.23054C2.42649 4.23538 2.57836 4.23864 2.70711 4.23864C3.42493 4.23864 4.53606 4.15154 4.53606 4.15154C4.90601 4.12973 4.94962 4.6731 4.5802 4.71685C4.5802 4.71685 4.2083 4.7606 3.79461 4.78227L6.29371 12.2159L7.79568 7.71159L6.72634 4.78214C6.35679 4.76047 6.00669 4.71672 6.00669 4.71672C5.63688 4.69504 5.68023 4.1296 6.05005 4.15141C6.05005 4.15141 7.18338 4.23851 7.85771 4.23851C8.57539 4.23851 9.68666 4.15141 9.68666 4.15141C10.0569 4.1296 10.1003 4.67297 9.73066 4.71672C9.73066 4.71672 9.35811 4.76047 8.94521 4.78214L11.4252 12.1595L12.1096 9.87202C12.4064 8.92279 12.6322 8.24099 12.6322 7.65348V7.65348Z" fill="#00749A"/>
<path d="M8.11959 8.59995L6.06055 14.5832C6.69005 14.7687 7.34292 14.8629 7.99919 14.8629C8.79836 14.8629 9.56475 14.7246 10.2781 14.4739C10.259 14.4439 10.2426 14.4123 10.2293 14.3793L8.11959 8.59995ZM14.0209 4.70703C14.0504 4.92563 14.0671 5.16043 14.0671 5.41272C14.0671 6.10914 13.9371 6.89201 13.5453 7.87088L11.4491 13.9318C13.4893 12.742 14.8616 10.5316 14.8616 7.99964C14.8634 6.84878 14.5742 5.71614 14.0209 4.70703V4.70703Z" fill="#00749A"/>
<path d="M7.9998 0C3.58883 0 0 3.58865 0 7.99974C0 12.4113 3.5887 16 7.9998 16C12.4107 16 16 12.4115 16 7.99974C15.9999 3.58865 12.4107 0 7.9998 0ZM7.9998 15.6332C3.7911 15.6332 0.366809 12.2088 0.366809 7.99974C0.366809 3.79106 3.79097 0.366948 7.9998 0.366948C12.2084 0.366948 15.6324 3.79106 15.6324 7.99974C15.6324 12.2088 12.2082 15.6332 7.9998 15.6332Z" fill="#00749A"/>
</svg>
